<svg width="377" height="76" viewBox="0 0 377 76" fill="none" xmlns="http://www.w3.org/2000/svg">
<line y1="7.5" x2="376.065" y2="7.5" stroke="black" stroke-width="3"/>
<circle cx="74" cy="8" r="8" fill="black"/>
<path d="M127.95 39.3333C118.75 39.3333 111.283 46.7999 111.283 55.9999C111.283 65.1999 118.75 72.6666 127.95 72.6666C137.15 72.6666 144.617 65.1999 144.617 55.9999C144.617 46.7999 137.167 39.3333 127.95 39.3333ZM132.95 59.7166L128.117 62.4999C127.517 62.8499 126.85 63.0166 126.2 63.0166C125.533 63.0166 124.883 62.8499 124.283 62.4999C123.083 61.7999 122.367 60.5666 122.367 59.1666V53.5833C122.367 52.1999 123.083 50.9499 124.283 50.2499C125.483 49.5499 126.917 49.5499 128.133 50.2499L132.967 53.0333C134.167 53.7333 134.883 54.9666 134.883 56.3666C134.883 57.7666 134.167 59.0166 132.95 59.7166Z" fill="#171717"/>
<path d="M187.95 39.3333C178.75 39.3333 171.283 46.7999 171.283 55.9999C171.283 65.1999 178.75 72.6666 187.95 72.6666C197.15 72.6666 204.617 65.1999 204.617 55.9999C204.617 46.7999 197.167 39.3333 187.95 39.3333ZM185.867 61.0499C185.867 61.8499 185.533 62.1666 184.683 62.1666H182.517C181.667 62.1666 181.333 61.8499 181.333 61.0499V50.9499C181.333 50.1499 181.667 49.8333 182.517 49.8333H184.667C185.517 49.8333 185.85 50.1499 185.85 50.9499V61.0499H185.867ZM194.667 61.0499C194.667 61.8499 194.333 62.1666 193.483 62.1666H191.333C190.483 62.1666 190.15 61.8499 190.15 61.0499V50.9499C190.15 50.1499 190.483 49.8333 191.333 49.8333H193.483C194.333 49.8333 194.667 50.1499 194.667 50.9499V61.0499Z" fill="#171717"/>
<path d="M247.95 39.3333C238.75 39.3333 231.283 46.7999 231.283 55.9999C231.283 65.1999 238.75 72.6666 247.95 72.6666C257.15 72.6666 264.617 65.1999 264.617 55.9999C264.617 46.7999 257.167 39.3333 247.95 39.3333ZM255.05 58.0499C255.05 60.8166 252.817 63.0499 250.05 63.0499H245.95C243.183 63.0499 240.95 60.8166 240.95 58.0499V53.9499C240.95 51.1833 243.183 48.9499 245.95 48.9499H250.05C252.817 48.9499 255.05 51.1833 255.05 53.9499V58.0499Z" fill="#171717"/>
</svg>
