<svg width="43" height="43" viewBox="0 0 43 43" fill="none" xmlns="http://www.w3.org/2000/svg">
<path d="M19.708 32.25H23.2913V28.6667H19.708V32.25ZM21.4997 3.58334C19.1468 3.58334 16.817 4.04677 14.6433 4.94717C12.4695 5.84757 10.4944 7.1673 8.83068 8.83101C5.47065 12.191 3.58301 16.7482 3.58301 21.5C3.58301 26.2518 5.47065 30.809 8.83068 34.169C10.4944 35.8327 12.4695 37.1525 14.6433 38.0529C16.817 38.9533 19.1468 39.4167 21.4997 39.4167C26.2515 39.4167 30.8086 37.529 34.1687 34.169C37.5287 30.809 39.4163 26.2518 39.4163 21.5C39.4163 19.1472 38.9529 16.8173 38.0525 14.6436C37.1521 12.4698 35.8324 10.4947 34.1687 8.83101C32.505 7.1673 30.5298 5.84757 28.3561 4.94717C26.1823 4.04677 23.8525 3.58334 21.4997 3.58334ZM21.4997 35.8333C13.5984 35.8333 7.16634 29.4013 7.16634 21.5C7.16634 13.5988 13.5984 7.16668 21.4997 7.16668C29.4009 7.16668 35.833 13.5988 35.833 21.5C35.833 29.4013 29.4009 35.8333 21.4997 35.8333ZM21.4997 10.75C19.599 10.75 17.7761 11.5051 16.4321 12.8491C15.0881 14.1931 14.333 16.016 14.333 17.9167H17.9163C17.9163 16.9663 18.2939 16.0549 18.9659 15.3829C19.6379 14.7109 20.5493 14.3333 21.4997 14.3333C22.45 14.3333 23.3615 14.7109 24.0335 15.3829C24.7055 16.0549 25.083 16.9663 25.083 17.9167C25.083 21.5 19.708 21.0521 19.708 26.875H23.2913C23.2913 22.8438 28.6663 22.3958 28.6663 17.9167C28.6663 16.016 27.9113 14.1931 26.5673 12.8491C25.2233 11.5051 23.4004 10.75 21.4997 10.75Z" fill="#8F8F8F"/>
</svg>
