<svg width="157" height="40" viewBox="0 0 157 40" fill="none" xmlns="http://www.w3.org/2000/svg">
<path d="M16.6667 3.33337C7.46667 3.33337 0 10.8 0 20C0 29.2 7.46667 36.6667 16.6667 36.6667C25.8667 36.6667 33.3333 29.2 33.3333 20C33.3333 10.8 25.8833 3.33337 16.6667 3.33337ZM21.6667 23.7167L16.8333 26.5C16.2333 26.85 15.5667 27.0167 14.9167 27.0167C14.25 27.0167 13.6 26.85 13 26.5C11.8 25.8 11.0833 24.5667 11.0833 23.1667V17.5834C11.0833 16.2 11.8 14.95 13 14.25C14.2 13.55 15.6333 13.55 16.85 14.25L21.6833 17.0334C22.8833 17.7334 23.6 18.9667 23.6 20.3667C23.6 21.7667 22.8833 23.0167 21.6667 23.7167Z" fill="#171717"/>
<path d="M76.6667 3.33337C67.4667 3.33337 60 10.8 60 20C60 29.2 67.4667 36.6667 76.6667 36.6667C85.8667 36.6667 93.3333 29.2 93.3333 20C93.3333 10.8 85.8833 3.33337 76.6667 3.33337ZM74.5833 25.05C74.5833 25.85 74.25 26.1667 73.4 26.1667H71.2333C70.3833 26.1667 70.05 25.85 70.05 25.05V14.95C70.05 14.15 70.3833 13.8334 71.2333 13.8334H73.3833C74.2333 13.8334 74.5667 14.15 74.5667 14.95V25.05H74.5833ZM83.3833 25.05C83.3833 25.85 83.05 26.1667 82.2 26.1667H80.05C79.2 26.1667 78.8667 25.85 78.8667 25.05V14.95C78.8667 14.15 79.2 13.8334 80.05 13.8334H82.2C83.05 13.8334 83.3833 14.15 83.3833 14.95V25.05Z" fill="#171717"/>
<path d="M136.667 3.33337C127.467 3.33337 120 10.8 120 20C120 29.2 127.467 36.6667 136.667 36.6667C145.867 36.6667 153.333 29.2 153.333 20C153.333 10.8 145.883 3.33337 136.667 3.33337ZM143.767 22.05C143.767 24.8167 141.533 27.05 138.767 27.05H134.667C131.9 27.05 129.667 24.8167 129.667 22.05V17.95C129.667 15.1834 131.9 12.95 134.667 12.95H138.767C141.533 12.95 143.767 15.1834 143.767 17.95V22.05Z" fill="#171717"/>
</svg>
